<?xml version="1.0" encoding="UTF-8"?>
<!DOCTYPE svg PUBLIC "-//W3C//DTD SVG 1.1//EN" "http://www.w3.org/Graphics/SVG/1.1/DTD/svg11.dtd">
<svg width="160mm" height="90mm" viewBox="0 0 16000 9000" version="1.1" xmlns="http://www.w3.org/2000/svg" xmlns:xlink="http://www.w3.org/1999/xlink" stroke-width="28.222" stroke-linejoin="round" xml:space="preserve">
 <path fill="rgb(255,255,255)" stroke="none" d="M 7994,9005 L 0,9005 0,0 15988,0 15988,9005 7994,9005 Z"/>
 <path fill="none" stroke="rgb(179,179,179)" stroke-linejoin="round" d="M 9736,7190 L 4176,7190 4176,377 15297,377 15297,7190 9736,7190 Z"/>
 <path fill="none" stroke="rgb(179,179,179)" stroke-linejoin="round" d="M 15297,7189 L 4176,7189"/>
 <path fill="none" stroke="rgb(179,179,179)" stroke-linejoin="round" d="M 15297,6215 L 4176,6215"/>
 <path fill="none" stroke="rgb(179,179,179)" stroke-linejoin="round" d="M 15297,5242 L 4176,5242"/>
 <path fill="none" stroke="rgb(179,179,179)" stroke-linejoin="round" d="M 15297,4269 L 4176,4269"/>
 <path fill="none" stroke="rgb(179,179,179)" stroke-linejoin="round" d="M 15297,3296 L 4176,3296"/>
 <path fill="none" stroke="rgb(179,179,179)" stroke-linejoin="round" d="M 15297,2322 L 4176,2322"/>
 <path fill="none" stroke="rgb(179,179,179)" stroke-linejoin="round" d="M 15297,1349 L 4176,1349"/>
 <path fill="none" stroke="rgb(179,179,179)" stroke-linejoin="round" d="M 15297,375 L 4176,375"/>
 <path fill="none" stroke="rgb(179,179,179)" stroke-linejoin="round" d="M 4176,7339 L 4176,7189"/>
 <path fill="none" stroke="rgb(179,179,179)" stroke-linejoin="round" d="M 4176,7339 L 4176,7189"/>
 <path fill="none" stroke="rgb(179,179,179)" stroke-linejoin="round" d="M 4830,7339 L 4830,7189"/>
 <path fill="none" stroke="rgb(179,179,179)" stroke-linejoin="round" d="M 4830,7339 L 4830,7189"/>
 <path fill="none" stroke="rgb(179,179,179)" stroke-linejoin="round" d="M 5484,7339 L 5484,7189"/>
 <path fill="none" stroke="rgb(179,179,179)" stroke-linejoin="round" d="M 5484,7339 L 5484,7189"/>
 <path fill="none" stroke="rgb(179,179,179)" stroke-linejoin="round" d="M 6138,7339 L 6138,7189"/>
 <path fill="none" stroke="rgb(179,179,179)" stroke-linejoin="round" d="M 6138,7339 L 6138,7189"/>
 <path fill="none" stroke="rgb(179,179,179)" stroke-linejoin="round" d="M 6792,7339 L 6792,7189"/>
 <path fill="none" stroke="rgb(179,179,179)" stroke-linejoin="round" d="M 6792,7339 L 6792,7189"/>
 <path fill="none" stroke="rgb(179,179,179)" stroke-linejoin="round" d="M 7447,7339 L 7447,7189"/>
 <path fill="none" stroke="rgb(179,179,179)" stroke-linejoin="round" d="M 7447,7339 L 7447,7189"/>
 <path fill="none" stroke="rgb(179,179,179)" stroke-linejoin="round" d="M 8100,7339 L 8100,7189"/>
 <path fill="none" stroke="rgb(179,179,179)" stroke-linejoin="round" d="M 8100,7339 L 8100,7189"/>
 <path fill="none" stroke="rgb(179,179,179)" stroke-linejoin="round" d="M 8754,7339 L 8754,7189"/>
 <path fill="none" stroke="rgb(179,179,179)" stroke-linejoin="round" d="M 8754,7339 L 8754,7189"/>
 <path fill="none" stroke="rgb(179,179,179)" stroke-linejoin="round" d="M 9408,7339 L 9408,7189"/>
 <path fill="none" stroke="rgb(179,179,179)" stroke-linejoin="round" d="M 9408,7339 L 9408,7189"/>
 <path fill="none" stroke="rgb(179,179,179)" stroke-linejoin="round" d="M 10063,7339 L 10063,7189"/>
 <path fill="none" stroke="rgb(179,179,179)" stroke-linejoin="round" d="M 10063,7339 L 10063,7189"/>
 <path fill="none" stroke="rgb(179,179,179)" stroke-linejoin="round" d="M 10717,7339 L 10717,7189"/>
 <path fill="none" stroke="rgb(179,179,179)" stroke-linejoin="round" d="M 10717,7339 L 10717,7189"/>
 <path fill="none" stroke="rgb(179,179,179)" stroke-linejoin="round" d="M 11371,7339 L 11371,7189"/>
 <path fill="none" stroke="rgb(179,179,179)" stroke-linejoin="round" d="M 11371,7339 L 11371,7189"/>
 <path fill="none" stroke="rgb(179,179,179)" stroke-linejoin="round" d="M 12025,7339 L 12025,7189"/>
 <path fill="none" stroke="rgb(179,179,179)" stroke-linejoin="round" d="M 12025,7339 L 12025,7189"/>
 <path fill="none" stroke="rgb(179,179,179)" stroke-linejoin="round" d="M 12680,7339 L 12680,7189"/>
 <path fill="none" stroke="rgb(179,179,179)" stroke-linejoin="round" d="M 12680,7339 L 12680,7189"/>
 <path fill="none" stroke="rgb(179,179,179)" stroke-linejoin="round" d="M 13334,7339 L 13334,7189"/>
 <path fill="none" stroke="rgb(179,179,179)" stroke-linejoin="round" d="M 13334,7339 L 13334,7189"/>
 <path fill="none" stroke="rgb(179,179,179)" stroke-linejoin="round" d="M 13988,7339 L 13988,7189"/>
 <path fill="none" stroke="rgb(179,179,179)" stroke-linejoin="round" d="M 13988,7339 L 13988,7189"/>
 <path fill="none" stroke="rgb(179,179,179)" stroke-linejoin="round" d="M 14642,7339 L 14642,7189"/>
 <path fill="none" stroke="rgb(179,179,179)" stroke-linejoin="round" d="M 14642,7339 L 14642,7189"/>
 <path fill="none" stroke="rgb(179,179,179)" stroke-linejoin="round" d="M 15297,7339 L 15297,7189"/>
 <path fill="none" stroke="rgb(179,179,179)" stroke-linejoin="round" d="M 15297,7339 L 15297,7189"/>
 <path fill="none" stroke="rgb(179,179,179)" stroke-linejoin="round" d="M 4176,7189 L 15297,7189"/>
 <path fill="none" stroke="rgb(179,179,179)" stroke-linejoin="round" d="M 4026,7189 L 4176,7189"/>
 <path fill="none" stroke="rgb(179,179,179)" stroke-linejoin="round" d="M 4026,7189 L 4176,7189"/>
 <path fill="none" stroke="rgb(179,179,179)" stroke-linejoin="round" d="M 4026,6215 L 4176,6215"/>
 <path fill="none" stroke="rgb(179,179,179)" stroke-linejoin="round" d="M 4026,6215 L 4176,6215"/>
 <path fill="none" stroke="rgb(179,179,179)" stroke-linejoin="round" d="M 4026,5242 L 4176,5242"/>
 <path fill="none" stroke="rgb(179,179,179)" stroke-linejoin="round" d="M 4026,5242 L 4176,5242"/>
 <path fill="none" stroke="rgb(179,179,179)" stroke-linejoin="round" d="M 4026,4269 L 4176,4269"/>
 <path fill="none" stroke="rgb(179,179,179)" stroke-linejoin="round" d="M 4026,4269 L 4176,4269"/>
 <path fill="none" stroke="rgb(179,179,179)" stroke-linejoin="round" d="M 4026,3296 L 4176,3296"/>
 <path fill="none" stroke="rgb(179,179,179)" stroke-linejoin="round" d="M 4026,3296 L 4176,3296"/>
 <path fill="none" stroke="rgb(179,179,179)" stroke-linejoin="round" d="M 4026,2322 L 4176,2322"/>
 <path fill="none" stroke="rgb(179,179,179)" stroke-linejoin="round" d="M 4026,2322 L 4176,2322"/>
 <path fill="none" stroke="rgb(179,179,179)" stroke-linejoin="round" d="M 4026,1349 L 4176,1349"/>
 <path fill="none" stroke="rgb(179,179,179)" stroke-linejoin="round" d="M 4026,1349 L 4176,1349"/>
 <path fill="none" stroke="rgb(179,179,179)" stroke-linejoin="round" d="M 4026,375 L 4176,375"/>
 <path fill="none" stroke="rgb(179,179,179)" stroke-linejoin="round" d="M 4026,375 L 4176,375"/>
 <path fill="none" stroke="rgb(179,179,179)" stroke-linejoin="round" d="M 4176,7189 L 4176,375"/>
 <path fill="none" stroke="rgb(0,69,134)" stroke-width="80" stroke-linejoin="round" d="M 4176,6702 L 4830,6717 5484,6708 6138,6528 6792,6528 7447,6528 8100,6255 8754,6255 9408,6255 10063,6107 10717,6107 11371,6182 12025,4030 12680,4030 13334,4030 13988,1111 14642,1111 15297,1111"/>
 <text class="TextShape"><tspan class="TextParagraph" font-family="Liberation Sans, sans-serif" font-size="423px" font-weight="400"><tspan class="TextPosition" x="4057" y="7809"><tspan fill="rgb(0,0,0)" stroke="none">0</tspan></tspan></tspan></text>
 <text class="TextShape"><tspan class="TextParagraph" font-family="Liberation Sans, sans-serif" font-size="423px" font-weight="400"><tspan class="TextPosition" x="4711" y="7809"><tspan fill="rgb(0,0,0)" stroke="none">1</tspan></tspan></tspan></text>
 <text class="TextShape"><tspan class="TextParagraph" font-family="Liberation Sans, sans-serif" font-size="423px" font-weight="400"><tspan class="TextPosition" x="5365" y="7809"><tspan fill="rgb(0,0,0)" stroke="none">2</tspan></tspan></tspan></text>
 <text class="TextShape"><tspan class="TextParagraph" font-family="Liberation Sans, sans-serif" font-size="423px" font-weight="400"><tspan class="TextPosition" x="6019" y="7809"><tspan fill="rgb(0,0,0)" stroke="none">3</tspan></tspan></tspan></text>
 <text class="TextShape"><tspan class="TextParagraph" font-family="Liberation Sans, sans-serif" font-size="423px" font-weight="400"><tspan class="TextPosition" x="6673" y="7809"><tspan fill="rgb(0,0,0)" stroke="none">4</tspan></tspan></tspan></text>
 <text class="TextShape"><tspan class="TextParagraph" font-family="Liberation Sans, sans-serif" font-size="423px" font-weight="400"><tspan class="TextPosition" x="7328" y="7809"><tspan fill="rgb(0,0,0)" stroke="none">5</tspan></tspan></tspan></text>
 <text class="TextShape"><tspan class="TextParagraph" font-family="Liberation Sans, sans-serif" font-size="423px" font-weight="400"><tspan class="TextPosition" x="7982" y="7809"><tspan fill="rgb(0,0,0)" stroke="none">6</tspan></tspan></tspan></text>
 <text class="TextShape"><tspan class="TextParagraph" font-family="Liberation Sans, sans-serif" font-size="423px" font-weight="400"><tspan class="TextPosition" x="8636" y="7809"><tspan fill="rgb(0,0,0)" stroke="none">7</tspan></tspan></tspan></text>
 <text class="TextShape"><tspan class="TextParagraph" font-family="Liberation Sans, sans-serif" font-size="423px" font-weight="400"><tspan class="TextPosition" x="9290" y="7809"><tspan fill="rgb(0,0,0)" stroke="none">8</tspan></tspan></tspan></text>
 <text class="TextShape"><tspan class="TextParagraph" font-family="Liberation Sans, sans-serif" font-size="423px" font-weight="400"><tspan class="TextPosition" x="9945" y="7809"><tspan fill="rgb(0,0,0)" stroke="none">9</tspan></tspan></tspan></text>
 <text class="TextShape"><tspan class="TextParagraph" font-family="Liberation Sans, sans-serif" font-size="423px" font-weight="400"><tspan class="TextPosition" x="10480" y="7809"><tspan fill="rgb(0,0,0)" stroke="none">10</tspan></tspan></tspan></text>
 <text class="TextShape"><tspan class="TextParagraph" font-family="Liberation Sans, sans-serif" font-size="423px" font-weight="400"><tspan class="TextPosition" x="11134" y="7809"><tspan fill="rgb(0,0,0)" stroke="none">11</tspan></tspan></tspan></text>
 <text class="TextShape"><tspan class="TextParagraph" font-family="Liberation Sans, sans-serif" font-size="423px" font-weight="400"><tspan class="TextPosition" x="11788" y="7809"><tspan fill="rgb(0,0,0)" stroke="none">12</tspan></tspan></tspan></text>
 <text class="TextShape"><tspan class="TextParagraph" font-family="Liberation Sans, sans-serif" font-size="423px" font-weight="400"><tspan class="TextPosition" x="12443" y="7809"><tspan fill="rgb(0,0,0)" stroke="none">13</tspan></tspan></tspan></text>
 <text class="TextShape"><tspan class="TextParagraph" font-family="Liberation Sans, sans-serif" font-size="423px" font-weight="400"><tspan class="TextPosition" x="13097" y="7809"><tspan fill="rgb(0,0,0)" stroke="none">14</tspan></tspan></tspan></text>
 <text class="TextShape"><tspan class="TextParagraph" font-family="Liberation Sans, sans-serif" font-size="423px" font-weight="400"><tspan class="TextPosition" x="13751" y="7809"><tspan fill="rgb(0,0,0)" stroke="none">15</tspan></tspan></tspan></text>
 <text class="TextShape"><tspan class="TextParagraph" font-family="Liberation Sans, sans-serif" font-size="423px" font-weight="400"><tspan class="TextPosition" x="14405" y="7809"><tspan fill="rgb(0,0,0)" stroke="none">16</tspan></tspan></tspan></text>
 <text class="TextShape"><tspan class="TextParagraph" font-family="Liberation Sans, sans-serif" font-size="423px" font-weight="400"><tspan class="TextPosition" x="15060" y="7809"><tspan fill="rgb(0,0,0)" stroke="none">17</tspan></tspan></tspan></text>
 <text class="TextShape"><tspan class="TextParagraph" font-family="Liberation Sans, sans-serif" font-size="423px" font-weight="400"><tspan class="TextPosition" x="2735" y="7335"><tspan fill="rgb(0,0,0)" stroke="none">0.00%</tspan></tspan></tspan></text>
 <text class="TextShape"><tspan class="TextParagraph" font-family="Liberation Sans, sans-serif" font-size="423px" font-weight="400"><tspan class="TextPosition" x="2259" y="6361"><tspan fill="rgb(0,0,0)" stroke="none">200.00%</tspan></tspan></tspan></text>
 <text class="TextShape"><tspan class="TextParagraph" font-family="Liberation Sans, sans-serif" font-size="423px" font-weight="400"><tspan class="TextPosition" x="2259" y="5388"><tspan fill="rgb(0,0,0)" stroke="none">400.00%</tspan></tspan></tspan></text>
 <text class="TextShape"><tspan class="TextParagraph" font-family="Liberation Sans, sans-serif" font-size="423px" font-weight="400"><tspan class="TextPosition" x="2259" y="4414"><tspan fill="rgb(0,0,0)" stroke="none">600.00%</tspan></tspan></tspan></text>
 <text class="TextShape"><tspan class="TextParagraph" font-family="Liberation Sans, sans-serif" font-size="423px" font-weight="400"><tspan class="TextPosition" x="2259" y="3441"><tspan fill="rgb(0,0,0)" stroke="none">800.00%</tspan></tspan></tspan></text>
 <text class="TextShape"><tspan class="TextParagraph" font-family="Liberation Sans, sans-serif" font-size="423px" font-weight="400"><tspan class="TextPosition" x="2021" y="2467"><tspan fill="rgb(0,0,0)" stroke="none">1000.00%</tspan></tspan></tspan></text>
 <text class="TextShape"><tspan class="TextParagraph" font-family="Liberation Sans, sans-serif" font-size="423px" font-weight="400"><tspan class="TextPosition" x="2021" y="1494"><tspan fill="rgb(0,0,0)" stroke="none">1200.00%</tspan></tspan></tspan></text>
 <text class="TextShape"><tspan class="TextParagraph" font-family="Liberation Sans, sans-serif" font-size="423px" font-weight="400"><tspan class="TextPosition" x="2021" y="520"><tspan fill="rgb(0,0,0)" stroke="none">1400.00%</tspan></tspan></tspan></text>
 <text class="TextShape"><tspan class="TextParagraph" font-family="Liberation Sans, sans-serif" font-size="494px" font-weight="400"><tspan class="TextPosition" x="8223" y="8669"><tspan fill="rgb(0,0,0)" stroke="none">delta</tspan></tspan></tspan></text>
 <text class="TextShape" transform="rotate(-90 947 5025)"><tspan class="TextParagraph" font-family="Liberation Sans, sans-serif" font-size="494px" font-weight="400"><tspan class="TextPosition" x="947" y="5025"><tspan fill="rgb(0,0,0)" stroke="none">speedup</tspan></tspan></tspan></text>
</svg>