<?xml version="1.0" encoding="UTF-8"?>
<!DOCTYPE svg PUBLIC "-//W3C//DTD SVG 1.1//EN" "http://www.w3.org/Graphics/SVG/1.1/DTD/svg11.dtd">
<svg width="160mm" height="90mm" viewBox="0 0 16000 9000" version="1.1" xmlns="http://www.w3.org/2000/svg" xmlns:xlink="http://www.w3.org/1999/xlink" stroke-width="28.222" stroke-linejoin="round" xml:space="preserve">
 <path fill="rgb(255,255,255)" stroke="none" d="M 7995,9004 L 0,9004 0,0 15990,0 15990,9004 7995,9004 Z"/>
 <path fill="none" stroke="rgb(179,179,179)" stroke-linejoin="round" d="M 8901,7191 L 2642,7191 2642,377 15161,377 15161,7191 8901,7191 Z"/>
 <path fill="none" stroke="rgb(179,179,179)" stroke-linejoin="round" d="M 15161,7190 L 2642,7190"/>
 <path fill="none" stroke="rgb(179,179,179)" stroke-linejoin="round" d="M 15161,6054 L 2642,6054"/>
 <path fill="none" stroke="rgb(179,179,179)" stroke-linejoin="round" d="M 15161,4918 L 2642,4918"/>
 <path fill="none" stroke="rgb(179,179,179)" stroke-linejoin="round" d="M 15161,3783 L 2642,3783"/>
 <path fill="none" stroke="rgb(179,179,179)" stroke-linejoin="round" d="M 15161,2647 L 2642,2647"/>
 <path fill="none" stroke="rgb(179,179,179)" stroke-linejoin="round" d="M 15161,1511 L 2642,1511"/>
 <path fill="none" stroke="rgb(179,179,179)" stroke-linejoin="round" d="M 15161,375 L 2642,375"/>
 <path fill="none" stroke="rgb(221,221,221)" stroke-linejoin="round" d="M 15161,6622 L 2642,6622"/>
 <path fill="none" stroke="rgb(221,221,221)" stroke-linejoin="round" d="M 15161,5486 L 2642,5486"/>
 <path fill="none" stroke="rgb(221,221,221)" stroke-linejoin="round" d="M 15161,4351 L 2642,4351"/>
 <path fill="none" stroke="rgb(221,221,221)" stroke-linejoin="round" d="M 15161,3215 L 2642,3215"/>
 <path fill="none" stroke="rgb(221,221,221)" stroke-linejoin="round" d="M 15161,2079 L 2642,2079"/>
 <path fill="none" stroke="rgb(221,221,221)" stroke-linejoin="round" d="M 15161,943 L 2642,943"/>
 <path fill="none" stroke="rgb(179,179,179)" stroke-linejoin="round" d="M 2642,7340 L 2642,7190"/>
 <path fill="none" stroke="rgb(179,179,179)" stroke-linejoin="round" d="M 2642,7340 L 2642,7190"/>
 <path fill="none" stroke="rgb(179,179,179)" stroke-linejoin="round" d="M 3337,7340 L 3337,7190"/>
 <path fill="none" stroke="rgb(179,179,179)" stroke-linejoin="round" d="M 3337,7340 L 3337,7190"/>
 <path fill="none" stroke="rgb(179,179,179)" stroke-linejoin="round" d="M 4033,7340 L 4033,7190"/>
 <path fill="none" stroke="rgb(179,179,179)" stroke-linejoin="round" d="M 4033,7340 L 4033,7190"/>
 <path fill="none" stroke="rgb(179,179,179)" stroke-linejoin="round" d="M 4728,7340 L 4728,7190"/>
 <path fill="none" stroke="rgb(179,179,179)" stroke-linejoin="round" d="M 4728,7340 L 4728,7190"/>
 <path fill="none" stroke="rgb(179,179,179)" stroke-linejoin="round" d="M 5424,7340 L 5424,7190"/>
 <path fill="none" stroke="rgb(179,179,179)" stroke-linejoin="round" d="M 5424,7340 L 5424,7190"/>
 <path fill="none" stroke="rgb(179,179,179)" stroke-linejoin="round" d="M 6119,7340 L 6119,7190"/>
 <path fill="none" stroke="rgb(179,179,179)" stroke-linejoin="round" d="M 6119,7340 L 6119,7190"/>
 <path fill="none" stroke="rgb(179,179,179)" stroke-linejoin="round" d="M 6815,7340 L 6815,7190"/>
 <path fill="none" stroke="rgb(179,179,179)" stroke-linejoin="round" d="M 6815,7340 L 6815,7190"/>
 <path fill="none" stroke="rgb(179,179,179)" stroke-linejoin="round" d="M 7510,7340 L 7510,7190"/>
 <path fill="none" stroke="rgb(179,179,179)" stroke-linejoin="round" d="M 7510,7340 L 7510,7190"/>
 <path fill="none" stroke="rgb(179,179,179)" stroke-linejoin="round" d="M 8205,7340 L 8205,7190"/>
 <path fill="none" stroke="rgb(179,179,179)" stroke-linejoin="round" d="M 8205,7340 L 8205,7190"/>
 <path fill="none" stroke="rgb(179,179,179)" stroke-linejoin="round" d="M 8901,7340 L 8901,7190"/>
 <path fill="none" stroke="rgb(179,179,179)" stroke-linejoin="round" d="M 8901,7340 L 8901,7190"/>
 <path fill="none" stroke="rgb(179,179,179)" stroke-linejoin="round" d="M 9596,7340 L 9596,7190"/>
 <path fill="none" stroke="rgb(179,179,179)" stroke-linejoin="round" d="M 9596,7340 L 9596,7190"/>
 <path fill="none" stroke="rgb(179,179,179)" stroke-linejoin="round" d="M 10292,7340 L 10292,7190"/>
 <path fill="none" stroke="rgb(179,179,179)" stroke-linejoin="round" d="M 10292,7340 L 10292,7190"/>
 <path fill="none" stroke="rgb(179,179,179)" stroke-linejoin="round" d="M 10987,7340 L 10987,7190"/>
 <path fill="none" stroke="rgb(179,179,179)" stroke-linejoin="round" d="M 10987,7340 L 10987,7190"/>
 <path fill="none" stroke="rgb(179,179,179)" stroke-linejoin="round" d="M 11683,7340 L 11683,7190"/>
 <path fill="none" stroke="rgb(179,179,179)" stroke-linejoin="round" d="M 11683,7340 L 11683,7190"/>
 <path fill="none" stroke="rgb(179,179,179)" stroke-linejoin="round" d="M 12378,7340 L 12378,7190"/>
 <path fill="none" stroke="rgb(179,179,179)" stroke-linejoin="round" d="M 12378,7340 L 12378,7190"/>
 <path fill="none" stroke="rgb(179,179,179)" stroke-linejoin="round" d="M 13074,7340 L 13074,7190"/>
 <path fill="none" stroke="rgb(179,179,179)" stroke-linejoin="round" d="M 13074,7340 L 13074,7190"/>
 <path fill="none" stroke="rgb(179,179,179)" stroke-linejoin="round" d="M 13769,7340 L 13769,7190"/>
 <path fill="none" stroke="rgb(179,179,179)" stroke-linejoin="round" d="M 13769,7340 L 13769,7190"/>
 <path fill="none" stroke="rgb(179,179,179)" stroke-linejoin="round" d="M 14465,7340 L 14465,7190"/>
 <path fill="none" stroke="rgb(179,179,179)" stroke-linejoin="round" d="M 14465,7340 L 14465,7190"/>
 <path fill="none" stroke="rgb(179,179,179)" stroke-linejoin="round" d="M 15161,7340 L 15161,7190"/>
 <path fill="none" stroke="rgb(179,179,179)" stroke-linejoin="round" d="M 15161,7340 L 15161,7190"/>
 <path fill="none" stroke="rgb(179,179,179)" stroke-linejoin="round" d="M 2642,7190 L 15161,7190"/>
 <path fill="none" stroke="rgb(179,179,179)" stroke-linejoin="round" d="M 2492,7190 L 2642,7190"/>
 <path fill="none" stroke="rgb(179,179,179)" stroke-linejoin="round" d="M 2492,7190 L 2642,7190"/>
 <path fill="none" stroke="rgb(179,179,179)" stroke-linejoin="round" d="M 2492,6054 L 2642,6054"/>
 <path fill="none" stroke="rgb(179,179,179)" stroke-linejoin="round" d="M 2492,6054 L 2642,6054"/>
 <path fill="none" stroke="rgb(179,179,179)" stroke-linejoin="round" d="M 2492,4918 L 2642,4918"/>
 <path fill="none" stroke="rgb(179,179,179)" stroke-linejoin="round" d="M 2492,4918 L 2642,4918"/>
 <path fill="none" stroke="rgb(179,179,179)" stroke-linejoin="round" d="M 2492,3783 L 2642,3783"/>
 <path fill="none" stroke="rgb(179,179,179)" stroke-linejoin="round" d="M 2492,3783 L 2642,3783"/>
 <path fill="none" stroke="rgb(179,179,179)" stroke-linejoin="round" d="M 2492,2647 L 2642,2647"/>
 <path fill="none" stroke="rgb(179,179,179)" stroke-linejoin="round" d="M 2492,2647 L 2642,2647"/>
 <path fill="none" stroke="rgb(179,179,179)" stroke-linejoin="round" d="M 2492,1511 L 2642,1511"/>
 <path fill="none" stroke="rgb(179,179,179)" stroke-linejoin="round" d="M 2492,1511 L 2642,1511"/>
 <path fill="none" stroke="rgb(179,179,179)" stroke-linejoin="round" d="M 2492,375 L 2642,375"/>
 <path fill="none" stroke="rgb(179,179,179)" stroke-linejoin="round" d="M 2492,375 L 2642,375"/>
 <path fill="none" stroke="rgb(179,179,179)" stroke-linejoin="round" d="M 2642,7190 L 2642,375"/>
 <path fill="rgb(0,69,134)" stroke="none" d="M 14639,7190 L 14987,7190 14987,6769 14639,6769 14639,7190 Z"/>
 <path fill="rgb(0,69,134)" stroke="none" d="M 13943,7190 L 14291,7190 14291,6769 13943,6769 13943,7190 Z"/>
 <path fill="rgb(0,69,134)" stroke="none" d="M 13248,7190 L 13596,7190 13596,6769 13248,6769 13248,7190 Z"/>
 <path fill="rgb(0,69,134)" stroke="none" d="M 12552,7190 L 12900,7190 12900,6381 12552,6381 12552,7190 Z"/>
 <path fill="rgb(0,69,134)" stroke="none" d="M 11857,7190 L 12204,7190 12204,6381 11857,6381 11857,7190 Z"/>
 <path fill="rgb(0,69,134)" stroke="none" d="M 11161,7190 L 11509,7190 11509,6381 11161,6381 11161,7190 Z"/>
 <path fill="rgb(0,69,134)" stroke="none" d="M 10466,7190 L 10813,7190 10813,4652 10466,4652 10466,7190 Z"/>
 <path fill="rgb(0,69,134)" stroke="none" d="M 9770,7190 L 10118,7190 10118,4829 9770,4829 9770,7190 Z"/>
 <path fill="rgb(0,69,134)" stroke="none" d="M 9074,7190 L 9422,7190 9422,4829 9074,4829 9074,7190 Z"/>
 <path fill="rgb(0,69,134)" stroke="none" d="M 8379,7190 L 8727,7190 8727,4457 8379,4457 8379,7190 Z"/>
 <path fill="rgb(0,69,134)" stroke="none" d="M 7684,7190 L 8031,7190 8031,4457 7684,4457 7684,7190 Z"/>
 <path fill="rgb(0,69,134)" stroke="none" d="M 6989,7190 L 7337,7190 7337,4457 6989,4457 6989,7190 Z"/>
 <path fill="rgb(0,69,134)" stroke="none" d="M 6293,7190 L 6641,7190 6641,3324 6293,3324 6293,7190 Z"/>
 <path fill="rgb(0,69,134)" stroke="none" d="M 5598,7190 L 5945,7190 5945,3324 5598,3324 5598,7190 Z"/>
 <path fill="rgb(0,69,134)" stroke="none" d="M 4902,7190 L 5250,7190 5250,3324 4902,3324 4902,7190 Z"/>
 <path fill="rgb(0,69,134)" stroke="none" d="M 4207,7190 L 4554,7190 4554,1874 4207,1874 4207,7190 Z"/>
 <path fill="rgb(0,69,134)" stroke="none" d="M 3511,7190 L 3859,7190 3859,1779 3511,1779 3511,7190 Z"/>
 <path fill="rgb(0,69,134)" stroke="none" d="M 2815,7190 L 3163,7190 3163,1945 2815,1945 2815,7190 Z"/>
 <text class="TextShape"><tspan class="TextParagraph" font-family="Liberation Sans, sans-serif" font-size="423px" font-weight="400"><tspan class="TextPosition" x="2870" y="7810"><tspan fill="rgb(0,0,0)" stroke="none">0</tspan></tspan></tspan></text>
 <text class="TextShape"><tspan class="TextParagraph" font-family="Liberation Sans, sans-serif" font-size="423px" font-weight="400"><tspan class="TextPosition" x="3566" y="7810"><tspan fill="rgb(0,0,0)" stroke="none">1</tspan></tspan></tspan></text>
 <text class="TextShape"><tspan class="TextParagraph" font-family="Liberation Sans, sans-serif" font-size="423px" font-weight="400"><tspan class="TextPosition" x="4261" y="7810"><tspan fill="rgb(0,0,0)" stroke="none">2</tspan></tspan></tspan></text>
 <text class="TextShape"><tspan class="TextParagraph" font-family="Liberation Sans, sans-serif" font-size="423px" font-weight="400"><tspan class="TextPosition" x="4957" y="7810"><tspan fill="rgb(0,0,0)" stroke="none">3</tspan></tspan></tspan></text>
 <text class="TextShape"><tspan class="TextParagraph" font-family="Liberation Sans, sans-serif" font-size="423px" font-weight="400"><tspan class="TextPosition" x="5653" y="7810"><tspan fill="rgb(0,0,0)" stroke="none">4</tspan></tspan></tspan></text>
 <text class="TextShape"><tspan class="TextParagraph" font-family="Liberation Sans, sans-serif" font-size="423px" font-weight="400"><tspan class="TextPosition" x="6348" y="7810"><tspan fill="rgb(0,0,0)" stroke="none">5</tspan></tspan></tspan></text>
 <text class="TextShape"><tspan class="TextParagraph" font-family="Liberation Sans, sans-serif" font-size="423px" font-weight="400"><tspan class="TextPosition" x="7044" y="7810"><tspan fill="rgb(0,0,0)" stroke="none">6</tspan></tspan></tspan></text>
 <text class="TextShape"><tspan class="TextParagraph" font-family="Liberation Sans, sans-serif" font-size="423px" font-weight="400"><tspan class="TextPosition" x="7739" y="7810"><tspan fill="rgb(0,0,0)" stroke="none">7</tspan></tspan></tspan></text>
 <text class="TextShape"><tspan class="TextParagraph" font-family="Liberation Sans, sans-serif" font-size="423px" font-weight="400"><tspan class="TextPosition" x="8435" y="7810"><tspan fill="rgb(0,0,0)" stroke="none">8</tspan></tspan></tspan></text>
 <text class="TextShape"><tspan class="TextParagraph" font-family="Liberation Sans, sans-serif" font-size="423px" font-weight="400"><tspan class="TextPosition" x="9130" y="7810"><tspan fill="rgb(0,0,0)" stroke="none">9</tspan></tspan></tspan></text>
 <text class="TextShape"><tspan class="TextParagraph" font-family="Liberation Sans, sans-serif" font-size="423px" font-weight="400"><tspan class="TextPosition" x="9707" y="7810"><tspan fill="rgb(0,0,0)" stroke="none">10</tspan></tspan></tspan></text>
 <text class="TextShape"><tspan class="TextParagraph" font-family="Liberation Sans, sans-serif" font-size="423px" font-weight="400"><tspan class="TextPosition" x="10402" y="7810"><tspan fill="rgb(0,0,0)" stroke="none">11</tspan></tspan></tspan></text>
 <text class="TextShape"><tspan class="TextParagraph" font-family="Liberation Sans, sans-serif" font-size="423px" font-weight="400"><tspan class="TextPosition" x="11098" y="7810"><tspan fill="rgb(0,0,0)" stroke="none">12</tspan></tspan></tspan></text>
 <text class="TextShape"><tspan class="TextParagraph" font-family="Liberation Sans, sans-serif" font-size="423px" font-weight="400"><tspan class="TextPosition" x="11794" y="7810"><tspan fill="rgb(0,0,0)" stroke="none">13</tspan></tspan></tspan></text>
 <text class="TextShape"><tspan class="TextParagraph" font-family="Liberation Sans, sans-serif" font-size="423px" font-weight="400"><tspan class="TextPosition" x="12489" y="7810"><tspan fill="rgb(0,0,0)" stroke="none">14</tspan></tspan></tspan></text>
 <text class="TextShape"><tspan class="TextParagraph" font-family="Liberation Sans, sans-serif" font-size="423px" font-weight="400"><tspan class="TextPosition" x="13185" y="7810"><tspan fill="rgb(0,0,0)" stroke="none">15</tspan></tspan></tspan></text>
 <text class="TextShape"><tspan class="TextParagraph" font-family="Liberation Sans, sans-serif" font-size="423px" font-weight="400"><tspan class="TextPosition" x="13880" y="7810"><tspan fill="rgb(0,0,0)" stroke="none">16</tspan></tspan></tspan></text>
 <text class="TextShape"><tspan class="TextParagraph" font-family="Liberation Sans, sans-serif" font-size="423px" font-weight="400"><tspan class="TextPosition" x="14576" y="7810"><tspan fill="rgb(0,0,0)" stroke="none">17</tspan></tspan></tspan></text>
 <text class="TextShape"><tspan class="TextParagraph" font-family="Liberation Sans, sans-serif" font-size="423px" font-weight="400"><tspan class="TextPosition" x="2154" y="7336"><tspan fill="rgb(0,0,0)" stroke="none">0</tspan></tspan></tspan></text>
 <text class="TextShape"><tspan class="TextParagraph" font-family="Liberation Sans, sans-serif" font-size="423px" font-weight="400"><tspan class="TextPosition" x="1678" y="6200"><tspan fill="rgb(0,0,0)" stroke="none">100</tspan></tspan></tspan></text>
 <text class="TextShape"><tspan class="TextParagraph" font-family="Liberation Sans, sans-serif" font-size="423px" font-weight="400"><tspan class="TextPosition" x="1678" y="5064"><tspan fill="rgb(0,0,0)" stroke="none">200</tspan></tspan></tspan></text>
 <text class="TextShape"><tspan class="TextParagraph" font-family="Liberation Sans, sans-serif" font-size="423px" font-weight="400"><tspan class="TextPosition" x="1678" y="3928"><tspan fill="rgb(0,0,0)" stroke="none">300</tspan></tspan></tspan></text>
 <text class="TextShape"><tspan class="TextParagraph" font-family="Liberation Sans, sans-serif" font-size="423px" font-weight="400"><tspan class="TextPosition" x="1678" y="2792"><tspan fill="rgb(0,0,0)" stroke="none">400</tspan></tspan></tspan></text>
 <text class="TextShape"><tspan class="TextParagraph" font-family="Liberation Sans, sans-serif" font-size="423px" font-weight="400"><tspan class="TextPosition" x="1678" y="1656"><tspan fill="rgb(0,0,0)" stroke="none">500</tspan></tspan></tspan></text>
 <text class="TextShape"><tspan class="TextParagraph" font-family="Liberation Sans, sans-serif" font-size="423px" font-weight="400"><tspan class="TextPosition" x="1678" y="520"><tspan fill="rgb(0,0,0)" stroke="none">600</tspan></tspan></tspan></text>
 <text class="TextShape"><tspan class="TextParagraph" font-family="Liberation Sans, sans-serif" font-size="494px" font-weight="400"><tspan class="TextPosition" x="7863" y="8670"><tspan fill="rgb(0,0,0)" stroke="none">delta</tspan></tspan></tspan></text>
 <text class="TextShape" transform="rotate(-90 1104 5502)"><tspan class="TextParagraph" font-family="Liberation Sans, sans-serif" font-size="494px" font-weight="400"><tspan class="TextPosition" x="1104" y="5502"><tspan fill="rgb(0,0,0)" stroke="none">Latency (ms)</tspan></tspan></tspan></text>
</svg>